# xmcd
#
# Track frame offsets:
#	150
#	19890
#	35242
#	47585
#	64162
#	85462
#	100696
#	120732
#	141524
#	157811
#	177551
#	192903
#	205246
#	221823
#	243123
#	258357
#	278393
#	299185
#
# Disc length: 4206 seconds
#
# Revision: 1
# Processed by: cddbd v1.5.2PL0 Copyright (c) Steve Scherf et al.
# Submitted via: audiograbber 1.83.01
#
DISCID=15106c12
DTITLE=Various Artist - PHM0611-P
DYEAR=2006
DGENRE=karaoke
TTITLE0=We Ride - Rihanna
TTITLE1=But It's Better If You Do - Panic At The Disco
TTITLE2=Gone Daddy Gone - Gnaris Barkley 
TTITLE3=Long Way 2 Go - Cassie
TTITLE4=Chasing Cars - Snow Patrol
TTITLE5=Right Where You Want Me - Jesse McCartney
TTITLE6=And She Said - Lucas Prata
TTITLE7=Rockstar - Nickelback
TTITLE8=Snakes On A Plane - Cobra Starship/Gym Class Heroes
TTITLE9=We Ride - Rihanna (vocal)
TTITLE10=But It's Better If You Do - Panic At The Disco (vocal)
TTITLE11=Gone Daddy Gone - Gnaris Barkley (vocal)
TTITLE12=Long Way 2 Go - Cassie (vocal)
TTITLE13=Chasing Cars - Snow patrol (vocal)
TTITLE14=Right Where you Want Me - Jesse McCartney (vocal)
TTITLE15=And She Said - Lucas Prata (vocal)
TTITLE16=Rockstar - Nickelback (vocal)
TTITLE17=Snakes On A Plane - Cobra Starship/Gym class Heroes (vocal)
EXTD=
EXTT0=
EXTT1=
EXTT2=
EXTT3=
EXTT4=
EXTT5=
EXTT6=
EXTT7=
EXTT8=
EXTT9=
EXTT10=
EXTT11=
EXTT12=
EXTT13=
EXTT14=
EXTT15=
EXTT16=
EXTT17=
PLAYORDER=
